# xmcd
#
# Track frame offsets: 
#        150
#        20595
#        28337
#        47213
#        68573
#        92687
#        112373
#        122006
#        140510
#        160054
#        179888
#        188430
#        207910
#        228678
#        251661
#
# Disc length: 3579 seconds
#
# Revision: 0
# Processed by: cddbd v1.5.1PL0 Copyright (c) Steve Scherf et al.
# Submitted via: ExactAudioCopy v0.95a5
#
DISCID=de0df90f
DTITLE=Mary J. Blige - Love and Life
DYEAR=1900
DGENRE=R&B SOUL
TTITLE0=Love and Life Intro (Featuring Jay Z and P. Diddy)
TTITLE1=Don't Go
TTITLE2=When We
TTITLE3=Not Today (Featuring Eve)
TTITLE4=Finally Made It (Interlude)
TTITLE5=Ooh!
TTITLE6=Let Me Be The 1 (Featuring 50 Cent)
TTITLE7=Love@1st Sight (Featuring Method Man)
TTITLE8=Willing and Waiting
TTITLE9=Free (Interlude)
TTITLE10=Friends
TTITLE11=Press On
TTITLE12=Feel Like Makin Love
TTITLE13=It's A Wrap
TTITLE14=Message In Our Music (Interlude)
EXTD=
EXTT0=
EXTT1=
EXTT2=
EXTT3=
EXTT4=
EXTT5=
EXTT6=
EXTT7=
EXTT8=
EXTT9=
EXTT10=
EXTT11=
EXTT12=
EXTT13=
EXTT14=
PLAYORDER=
